<svg id="visual" viewBox="0 0 1080 300" width="1080" height="300" xmlns="http://www.w3.org/2000/svg" xmlns:xlink="http://www.w3.org/1999/xlink" version="1.1"><rect x="0" y="0" width="1080" height="300" fill="#0f172a"></rect><path d="M0 68L36 73.3C72 78.7 144 89.3 216 89.3C288 89.3 360 78.7 432 78.7C504 78.7 576 89.3 648 102C720 114.7 792 129.3 864 125.7C936 122 1008 100 1044 89L1080 78L1080 301L1044 301C1008 301 936 301 864 301C792 301 720 301 648 301C576 301 504 301 432 301C360 301 288 301 216 301C144 301 72 301 36 301L0 301Z" fill="#ef4444"></path><path d="M0 166L36 164.7C72 163.3 144 160.7 216 155C288 149.3 360 140.7 432 144C504 147.3 576 162.7 648 166.5C720 170.3 792 162.7 864 160C936 157.3 1008 159.7 1044 160.8L1080 162L1080 301L1044 301C1008 301 936 301 864 301C792 301 720 301 648 301C576 301 504 301 432 301C360 301 288 301 216 301C144 301 72 301 36 301L0 301Z" fill="#ad3471"></path><path d="M0 217L36 211.7C72 206.3 144 195.7 216 190.8C288 186 360 187 432 191C504 195 576 202 648 202.2C720 202.3 792 195.7 864 194.3C936 193 1008 197 1044 199L1080 201L1080 301L1044 301C1008 301 936 301 864 301C792 301 720 301 648 301C576 301 504 301 432 301C360 301 288 301 216 301C144 301 72 301 36 301L0 301Z" fill="#56396b"></path><path d="M0 225L36 230.7C72 236.3 144 247.7 216 248C288 248.3 360 237.7 432 235.2C504 232.7 576 238.3 648 241.7C720 245 792 246 864 246.3C936 246.7 1008 246.3 1044 246.2L1080 246L1080 301L1044 301C1008 301 936 301 864 301C792 301 720 301 648 301C576 301 504 301 432 301C360 301 288 301 216 301C144 301 72 301 36 301L0 301Z" fill="#1e293b"></path></svg>