<svg id="visual" viewBox="0 0 1080 300" width="1080" height="300" xmlns="http://www.w3.org/2000/svg" xmlns:xlink="http://www.w3.org/1999/xlink" version="1.1"><rect x="0" y="0" width="1080" height="300" fill="#0f172a"></rect><path d="M0 175L36 181.5C72 188 144 201 216 203.7C288 206.3 360 198.7 432 199C504 199.3 576 207.7 648 207.8C720 208 792 200 864 199.2C936 198.3 1008 204.7 1044 207.8L1080 211L1080 0L1044 0C1008 0 936 0 864 0C792 0 720 0 648 0C576 0 504 0 432 0C360 0 288 0 216 0C144 0 72 0 36 0L0 0Z" fill="#ef4444"></path><path d="M0 141L36 138.8C72 136.7 144 132.3 216 133C288 133.7 360 139.3 432 145.8C504 152.3 576 159.7 648 159.8C720 160 792 153 864 145.5C936 138 1008 130 1044 126L1080 122L1080 0L1044 0C1008 0 936 0 864 0C792 0 720 0 648 0C576 0 504 0 432 0C360 0 288 0 216 0C144 0 72 0 36 0L0 0Z" fill="#ad3471"></path><path d="M0 133L36 125C72 117 144 101 216 96C288 91 360 97 432 97.2C504 97.3 576 91.7 648 94.8C720 98 792 110 864 115.3C936 120.7 1008 119.3 1044 118.7L1080 118L1080 0L1044 0C1008 0 936 0 864 0C792 0 720 0 648 0C576 0 504 0 432 0C360 0 288 0 216 0C144 0 72 0 36 0L0 0Z" fill="#56396b"></path><path d="M0 58L36 55.2C72 52.3 144 46.7 216 47.7C288 48.7 360 56.3 432 57.3C504 58.3 576 52.7 648 53.7C720 54.7 792 62.3 864 66C936 69.7 1008 69.3 1044 69.2L1080 69L1080 0L1044 0C1008 0 936 0 864 0C792 0 720 0 648 0C576 0 504 0 432 0C360 0 288 0 216 0C144 0 72 0 36 0L0 0Z" fill="#1e293b"></path></svg>